# xmcd
#
# Track frame offsets: 
#        150
#        16017
#        36135
#        62595
#        84430
#        100552
#        133440
#        159975
#        175580
#        203732
#        232717
#        263512
#        278742
#        300400
#        316262
#
# Disc length: 4526 seconds
#
# Revision: 13
# Processed by: cddbd v1.5.2PL0 Copyright (c) Steve Scherf et al.
# Submitted via: ExactAudioCopy v0.99pb1
#
DISCID=a911ac0f
DTITLE=Roy Buchanan - Sweet Dreams: The Anthology (Remaster) cd1
DYEAR=1992
DGENRE=Blues
TTITLE0=Baltimore
TTITLE1=Black Autumn
TTITLE2=The Story Of Isaac
TTITLE3=There'll Always Be
TTITLE4=Sweet Dreams
TTITLE5=Pete's Blue
TTITLE6=The Messiah Will Come Again
TTITLE7=Tribute To Elmore James
TTITLE8=After Hours
TTITLE9=Five String Blues
TTITLE10=C.C. Rider (Live)
TTITLE11=My Baby Says She's Gonna Leave Me
TTITLE12=Please Don't Turn Me Away
TTITLE13=Country Preacher
TTITLE14=Wayfaring Pilgrim
EXTD=YEAR: 1992
EXTT0=
EXTT1=
EXTT2=
EXTT3=
EXTT4=
EXTT5=
EXTT6=
EXTT7=
EXTT8=
EXTT9=
EXTT10=
EXTT11=
EXTT12=
EXTT13=
EXTT14=
PLAYORDER=
